<?xml version="1.0" encoding="utf-8"?>
<!DOCTYPE svg PUBLIC "-//W3C//DTD SVG 1.1//EN" "http://www.w3.org/Graphics/SVG/1.1/DTD/svg11.dtd">
<svg version="1.1" baseProfile="full"
 xmlns="http://www.w3.org/2000/svg"
 xmlns:xlink="http://www.w3.org/1999/xlink"
 xmlns:ev="http://www.w3.org/2001/xml-events" >
<path fill-rule="evenodd"  fill="rgb( 242, 223, 202 )"
 d="M655.041,0.063 C800.374,-2.281 892.045,62.769 933.550,165.243 C954.129,216.052 961.260,292.460 939.561,347.441 C926.999,379.269 907.352,395.383 887.465,418.519 C1030.707,416.405 1052.365,599.703 925.535,630.750 C926.203,631.751 926.871,632.752 927.539,633.753 C944.542,640.461 977.561,665.024 976.628,685.810 C952.186,723.100 895.006,759.081 858.412,785.919 C843.052,797.597 827.688,809.279 812.328,820.957 C733.525,828.298 654.699,835.641 575.896,842.981 C519.131,848.654 462.350,854.328 405.585,860.000 C352.827,838.645 300.053,817.285 247.296,795.930 C204.889,778.580 162.470,761.224 120.063,743.873 C106.707,725.522 93.346,707.165 79.990,688.813 C67.705,672.067 48.264,623.901 72.977,606.724 C62.626,599.050 52.272,591.373 41.920,583.699 C13.248,561.143 -16.595,508.948 10.864,463.568 C16.696,453.928 25.952,443.152 34.908,436.538 C50.165,425.271 70.785,417.399 92.012,412.512 C102.363,410.844 112.717,409.175 123.069,407.507 C6.797,400.182 -17.697,284.088 47.931,201.282 C84.365,155.311 205.482,118.016 270.338,165.243 C287.512,177.749 298.482,198.594 303.398,223.306 C304.066,231.981 304.734,240.659 305.402,249.334 C305.402,248.667 305.402,247.999 305.402,247.332 C317.109,227.413 322.004,204.428 333.453,185.264 C376.472,113.257 439.960,60.324 522.799,28.093 C550.149,17.452 580.803,11.209 611.962,5.068 C626.320,3.400 640.683,1.731 655.041,0.063 Z"/>
<path fill-rule="evenodd"  fill="rgb( 64, 59, 53 )"
 d="M547.000,642.000 C547.000,642.000 521.000,642.000 521.000,642.000 C521.000,642.000 495.000,642.000 495.000,642.000 C465.232,642.000 412.000,583.695 412.000,519.000 C412.000,503.766 423.193,494.000 437.000,494.000 C437.000,494.000 521.000,494.000 521.000,494.000 C521.000,494.000 605.000,494.000 605.000,494.000 C618.807,494.000 630.000,503.766 630.000,519.000 C630.000,583.695 576.768,642.000 547.000,642.000 Z"/>
<path fill-rule="evenodd"  opacity="0.2" fill="rgb( 255, 255, 255 )"
 d="M551.787,680.837 C551.787,680.837 534.183,682.382 534.183,682.382 C534.183,682.382 516.578,683.926 516.578,683.926 C496.422,685.695 456.930,649.334 453.104,605.480 C452.203,595.153 459.205,587.868 468.554,587.048 C468.554,587.048 525.431,582.057 525.431,582.057 C525.431,582.057 582.308,577.066 582.308,577.066 C591.657,576.246 599.813,582.201 600.714,592.528 C604.540,636.382 571.943,679.068 551.787,680.837 Z"/>
<path fill-rule="evenodd"  fill="rgb( 64, 59, 53 )"
 d="M750.500,497.000 C713.221,497.000 683.000,466.779 683.000,429.500 C683.000,392.221 713.221,362.000 750.500,362.000 C787.779,362.000 818.000,392.221 818.000,429.500 C818.000,466.779 787.779,497.000 750.500,497.000 ZM770.500,389.499 C759.454,389.499 750.500,398.454 750.500,409.500 C750.500,420.546 759.454,429.500 770.500,429.500 C781.546,429.500 790.500,420.546 790.500,409.500 C790.500,398.454 781.546,389.499 770.500,389.499 Z"/>
<path fill-rule="evenodd"  opacity="0.4" fill="rgb( 255, 255, 255 )"
 d="M770.500,389.500 C781.546,389.500 790.500,398.454 790.500,409.500 C790.500,420.546 781.546,429.500 770.500,429.500 C759.454,429.500 750.500,420.546 750.500,409.500 C750.500,398.454 759.454,389.500 770.500,389.500 Z"/>
<path fill-rule="evenodd"  fill="rgb( 64, 59, 53 )"
 d="M299.500,497.000 C262.221,497.000 232.000,466.779 232.000,429.500 C232.000,392.221 262.221,362.000 299.500,362.000 C336.779,362.000 367.000,392.221 367.000,429.500 C367.000,466.779 336.779,497.000 299.500,497.000 ZM315.500,389.499 C304.454,389.499 295.500,398.454 295.500,409.500 C295.500,420.546 304.454,429.500 315.500,429.500 C326.546,429.500 335.500,420.546 335.500,409.500 C335.500,398.454 326.546,389.499 315.500,389.499 Z"/>
<path fill-rule="evenodd"  opacity="0.4" fill="rgb( 255, 255, 255 )"
 d="M315.500,389.500 C326.546,389.500 335.500,398.454 335.500,409.500 C335.500,420.546 326.546,429.500 315.500,429.500 C304.454,429.500 295.500,420.546 295.500,409.500 C295.500,398.454 304.454,389.500 315.500,389.500 Z"/>
<path fill-rule="evenodd"  opacity="0.039" fill="rgb( 0, 0, 0 )"
 d="M-221.739,638.025 C-221.739,638.025 -163.610,225.447 122.094,4.852 C388.174,-200.590 883.225,-215.128 883.225,-215.128 C883.225,-215.128 1116.839,360.636 1116.839,360.636 C1116.839,360.636 956.590,137.338 895.439,114.386 C261.570,-123.533 236.462,762.337 30.000,1070.000 C-104.869,1270.978 -221.739,638.025 -221.739,638.025 Z"/>
<path fill-rule="evenodd"  fill="rgb( 239, 116, 111 )"
 d="M469.177,697.102 C496.012,695.222 517.527,720.770 517.320,753.700 C517.320,753.700 513.771,1319.222 513.771,1319.222 C513.771,1319.222 430.402,1328.556 430.402,1328.556 C430.402,1328.556 421.306,760.811 421.306,760.811 C420.776,727.722 442.245,698.988 469.177,697.102 Z"/>
<path fill-rule="evenodd"  fill="rgb( 239, 116, 111 )"
 d="M661.385,683.639 C687.536,681.808 707.333,707.131 705.708,739.747 C705.708,739.747 677.759,1300.860 677.759,1300.860 C677.759,1300.860 596.218,1309.990 596.218,1309.990 C596.218,1309.990 612.113,746.679 612.113,746.679 C613.038,713.907 635.141,685.478 661.385,683.639 Z"/>
<path fill-rule="evenodd"  fill="rgb( 239, 116, 111 )"
 d="M848.716,670.518 C874.208,668.733 892.367,693.835 889.395,726.143 C889.395,726.143 838.179,1282.899 838.179,1282.899 C838.179,1282.899 758.407,1291.830 758.407,1291.830 C758.407,1291.830 798.128,732.902 798.128,732.902 C800.435,700.441 823.135,672.310 848.716,670.518 Z"/>
<path fill-rule="evenodd"  fill="rgb( 255, 255, 255 )"
 d="M371.184,703.965 C398.372,702.061 420.776,727.722 421.306,760.811 C421.306,760.811 430.402,1328.556 430.402,1328.556 C430.402,1328.556 346.000,1338.000 346.000,1338.000 C346.000,1338.000 324.000,768.000 324.000,768.000 C322.714,734.751 343.897,705.877 371.184,703.965 Z"/>
<path fill-rule="evenodd"  fill="rgb( 255, 255, 255 )"
 d="M565.902,690.327 C592.392,688.472 613.038,713.907 612.113,746.679 C612.113,746.679 596.218,1309.990 596.218,1309.990 C596.218,1309.990 513.771,1319.222 513.771,1319.222 C513.771,1319.222 517.320,753.700 517.320,753.700 C517.527,720.770 539.318,692.189 565.902,690.327 Z"/>
<path fill-rule="evenodd"  fill="rgb( 255, 255, 255 )"
 d="M755.649,677.037 C781.467,675.229 800.435,700.441 798.128,732.902 C798.128,732.902 758.407,1291.830 758.407,1291.830 C758.407,1291.830 677.759,1300.860 677.759,1300.860 C677.759,1300.860 705.708,739.747 705.708,739.747 C707.333,707.131 729.739,678.852 755.649,677.037 Z"/>
<path fill-rule="evenodd"  fill="rgb( 255, 255, 255 )"
 d="M940.611,664.082 C965.783,662.319 983.150,687.312 979.530,719.467 C979.530,719.467 917.088,1274.064 917.088,1274.064 C917.088,1274.064 838.179,1282.899 838.179,1282.899 C838.179,1282.899 889.395,726.143 889.395,726.143 C892.367,693.835 915.351,665.851 940.611,664.082 Z"/>
<path fill-rule="evenodd"  fill="rgb( 239, 116, 111 )"
 d="M86.441,633.322 C96.742,636.854 108.846,668.197 113.231,702.367 C113.231,702.367 180.053,1223.089 180.053,1223.089 C180.053,1223.089 150.492,1202.675 150.492,1202.675 C150.492,1202.675 76.933,688.509 76.933,688.509 C72.133,654.959 76.278,629.838 86.441,633.322 Z"/>
<path fill-rule="evenodd"  fill="rgb( 239, 116, 111 )"
 d="M164.365,660.038 C175.761,663.945 187.958,696.724 191.363,732.198 C191.363,732.198 242.637,1266.306 242.637,1266.306 C242.637,1266.306 210.746,1244.284 210.746,1244.284 C210.746,1244.284 151.329,716.913 151.329,716.913 C147.407,682.102 153.131,656.187 164.365,660.038 Z"/>
<path fill-rule="evenodd"  fill="rgb( 239, 116, 111 )"
 d="M250.769,689.661 C263.443,694.007 275.681,728.356 277.864,765.223 C277.864,765.223 310.303,1313.033 310.303,1313.033 C310.303,1313.033 275.797,1289.204 275.797,1289.204 C275.797,1289.204 233.486,748.280 233.486,748.280 C230.658,712.121 238.284,685.381 250.769,689.661 Z"/>
<path fill-rule="evenodd"  fill="rgb( 255, 255, 255 )"
 d="M50.277,620.924 C60.089,624.288 72.133,654.959 76.933,688.509 C76.933,688.509 150.492,1202.675 150.492,1202.675 C150.492,1202.675 122.000,1183.000 122.000,1183.000 C122.000,1183.000 42.309,675.290 42.309,675.290 C37.138,642.340 40.594,617.604 50.277,620.924 Z"/>
<path fill-rule="evenodd"  fill="rgb( 255, 255, 255 )"
 d="M124.423,646.344 C135.251,650.056 147.407,682.102 151.329,716.913 C151.329,716.913 210.746,1244.284 210.746,1244.284 C210.746,1244.284 180.053,1223.089 180.053,1223.089 C180.053,1223.089 113.231,702.367 113.231,702.367 C108.846,668.197 113.745,642.683 124.423,646.344 Z"/>
<path fill-rule="evenodd"  fill="rgb( 255, 255, 255 )"
 d="M206.423,674.458 C218.432,678.575 230.658,712.121 233.486,748.280 C233.486,748.280 275.797,1289.204 275.797,1289.204 C275.797,1289.204 242.637,1266.306 242.637,1266.306 C242.637,1266.306 191.363,732.198 191.363,732.198 C187.958,696.724 194.588,670.400 206.423,674.458 Z"/>
<path fill-rule="evenodd"  fill="rgb( 255, 255, 255 )"
 d="M297.594,705.715 C310.990,710.308 324.539,745.401 326.000,783.000 C326.000,783.000 347.000,1338.000 347.000,1338.000 C347.000,1338.000 310.303,1313.033 310.303,1313.033 C310.303,1313.033 277.864,765.223 277.864,765.223 C275.681,728.356 284.404,701.193 297.594,705.715 Z"/>
</svg>